@startuml space

class Alien
class cañon {
    
    + MoverDerecha()
    + MoverIzquierda()
    + Disparar()
}

class Barrera
class Proyectil
class Vida 
class Juego
class Puntuacion 
class Nivel
class Jugador 
class Colisionable
class calamar
class cangrejo
class pulpo 



Juego "1" *-- "*" Nivel 
Nivel "1" *-- "*" Alien
Nivel "1" *-- "4" Barrera 
Nivel "1" *-- "1" cañon

Jugador o-- "1" cañon
Jugador "1" *-- "3" Vida 

cañon "1" o-- "*" Proyectil

Juego "1" *-- "1" Jugador

Proyectil o-- Colisionable

Barrera --|> Colisionable
Alien --|> Colisionable

Pulpo --|> Alien
Calamar --|> Alien 
Cangrejo --|> Alien 

Alien *-- Puntuacion 




@enduml 